<svg width="36" height="36" viewBox="0 0 36 36" fill="none" xmlns="http://www.w3.org/2000/svg">
<g clip-path="url(#clip0_349_6768)">
<path d="M0 8.11401H36V27.8908H0V8.11401Z" fill="white"/>
<path d="M0 24.1515V29.3719C0.00129465 31.1306 0.700538 32.817 1.94418 34.0607C3.18783 35.3043 4.8742 36.0036 6.63298 36.0048H29.3719C31.1307 36.0036 32.817 35.3043 34.0607 34.0607C35.3043 32.817 36.0036 31.1306 36.0049 29.3719V24.1515H0Z" fill="#00A504"/>
<path d="M29.3719 0H6.63298C4.8742 0.00129465 3.18783 0.700538 1.94418 1.94418C0.700538 3.18783 0.00129465 4.8742 0 6.63298V11.9707H36.0049V6.63298C36.0036 4.8742 35.3043 3.18783 34.0607 1.94418C32.817 0.700538 31.1307 0.00129465 29.3719 0Z" fill="#FF8B22"/>
<path d="M18.0023 23.0469C17.0218 23.0469 16.0634 22.7561 15.2482 22.2112C14.433 21.6664 13.7977 20.892 13.4227 19.9861C13.0477 19.0801 12.9499 18.0833 13.1415 17.1217C13.3331 16.1601 13.8057 15.277 14.4993 14.584C15.193 13.891 16.0766 13.4194 17.0384 13.2287C18.0001 13.038 18.9969 13.1368 19.9024 13.5127C20.808 13.8886 21.5818 14.5247 22.1258 15.3404C22.6698 16.1561 22.9597 17.1148 22.9587 18.0953C22.9574 19.409 22.4347 20.6685 21.5053 21.5969C20.5759 22.5254 19.316 23.0469 18.0023 23.0469ZM18.0023 14.4098C17.2732 14.4088 16.5601 14.6242 15.9534 15.0286C15.3467 15.4329 14.8735 16.0082 14.5938 16.6816C14.3141 17.3549 14.2405 18.0961 14.3821 18.8114C14.5238 19.5266 14.8744 20.1838 15.3896 20.6997C15.9049 21.2156 16.5616 21.5671 17.2766 21.7097C17.9917 21.8523 18.733 21.7796 19.4067 21.5008C20.0804 21.222 20.6563 20.7496 21.0615 20.1434C21.4667 19.5372 21.683 18.8245 21.683 18.0953C21.683 17.1187 21.2953 16.182 20.6052 15.491C19.9151 14.8 18.9789 14.4111 18.0023 14.4098Z" fill="#0063BC"/>
<path d="M18.0026 22.3674C17.8729 22.3674 17.7486 22.3159 17.6569 22.2243C17.5653 22.1326 17.5138 22.0083 17.5138 21.8786V19.288L15.7101 21.0917C15.6648 21.1379 15.6108 21.1746 15.5513 21.1998C15.4917 21.2249 15.4277 21.238 15.363 21.2383C15.2976 21.2387 15.2326 21.2259 15.1722 21.2007C15.1117 21.1755 15.057 21.1384 15.0111 21.0917C14.9653 21.0462 14.9289 20.9922 14.9041 20.9326C14.8793 20.873 14.8665 20.8091 14.8665 20.7446C14.8665 20.6801 14.8793 20.6162 14.9041 20.5566C14.9289 20.4971 14.9653 20.443 15.0111 20.3976L16.8197 18.589H14.229C14.0994 18.589 13.9751 18.5375 13.8834 18.4458C13.7917 18.3542 13.7402 18.2299 13.7402 18.1002C13.7402 17.9706 13.7917 17.8462 13.8834 17.7546C13.9751 17.6629 14.0994 17.6114 14.229 17.6114H16.8197L15.0111 15.8078C14.9401 15.7394 14.8914 15.6512 14.8715 15.5546C14.8515 15.4581 14.8612 15.3578 14.8993 15.2669C14.9373 15.176 15.002 15.0987 15.0847 15.0452C15.1675 14.9917 15.2645 14.9644 15.363 14.967C15.4274 14.9667 15.4911 14.979 15.5507 15.0033C15.6103 15.0276 15.6644 15.0635 15.7101 15.1088L17.5138 16.9124V14.3218C17.5138 14.1922 17.5653 14.0678 17.6569 13.9762C17.7486 13.8845 17.8729 13.833 18.0026 13.833C18.1322 13.833 18.2565 13.8845 18.3482 13.9762C18.4398 14.0678 18.4914 14.1922 18.4914 14.3218V16.9124L20.295 15.1088C20.3407 15.0635 20.3949 15.0276 20.4544 15.0033C20.514 14.979 20.5777 14.9667 20.6421 14.967C20.7396 14.9655 20.8353 14.9931 20.917 15.0464C20.9987 15.0997 21.0625 15.1762 21.1003 15.2661C21.1382 15.356 21.1483 15.4551 21.1293 15.5507C21.1104 15.6464 21.0632 15.7342 20.994 15.8029L19.1855 17.6114H21.7761C21.9057 17.6114 22.03 17.6629 22.1217 17.7546C22.2134 17.8462 22.2649 17.9706 22.2649 18.1002C22.2649 18.2299 22.2134 18.3542 22.1217 18.4458C22.03 18.5375 21.9057 18.589 21.7761 18.589H19.1855L20.994 20.3976C21.0398 20.443 21.0762 20.4971 21.101 20.5566C21.1258 20.6162 21.1386 20.6801 21.1386 20.7446C21.1386 20.8091 21.1258 20.873 21.101 20.9326C21.0762 20.9922 21.0398 21.0462 20.994 21.0917C20.9482 21.1384 20.8934 21.1755 20.8329 21.2007C20.7725 21.2259 20.7076 21.2387 20.6421 21.2383C20.5774 21.238 20.5134 21.2249 20.4538 21.1998C20.3943 21.1746 20.3403 21.1379 20.295 21.0917L18.4914 19.288V21.8786C18.4914 22.0083 18.4398 22.1326 18.3482 22.2243C18.2565 22.3159 18.1322 22.3674 18.0026 22.3674Z" fill="#0063BC"/>
</g>
<defs>
<clipPath id="clip0_349_6768">
<rect width="36" height="36" fill="white"/>
</clipPath>
</defs>
</svg>
