<svg width="36" height="36" viewBox="0 0 36 36" fill="none" xmlns="http://www.w3.org/2000/svg">
<g clip-path="url(#clip0_47_1500)">
<path d="M7.875 0.5H28.125C32.1981 0.5 35.5 3.80189 35.5 7.875V28.125C35.5 32.1981 32.1981 35.5 28.125 35.5H7.875C3.80189 35.5 0.5 32.1981 0.5 28.125V7.875C0.5 3.80189 3.80189 0.5 7.875 0.5Z" fill="white" stroke="#777777"/>
<path d="M18.0001 24.8273C21.7707 24.8273 24.8274 21.7706 24.8274 18C24.8274 14.2293 21.7707 11.1726 18.0001 11.1726C14.2294 11.1726 11.1727 14.2293 11.1727 18C11.1727 21.7706 14.2294 24.8273 18.0001 24.8273Z" fill="#FF4B55"/>
</g>
<rect x="0.5" y="0.5" width="35" height="35" rx="7.5" stroke="#B9B9B9"/>
<defs>
<clipPath id="clip0_47_1500">
<rect width="36" height="36" rx="8" fill="white"/>
</clipPath>
</defs>
</svg>
