<svg width="36" height="36" viewBox="0 0 36 36" fill="none" xmlns="http://www.w3.org/2000/svg">
<g clip-path="url(#clip0_349_6826)">
<path d="M6.63299 0H29.367C33.0281 0 36 2.97189 36 6.63299V29.367C36 33.0281 33.0281 36 29.367 36H6.63299C2.97189 36 0 33.0281 0 29.367V6.63299C0 2.97189 2.97189 0 6.63299 0Z" fill="white"/>
<path d="M3.06036 24.4106L3.43674 24.1075C3.62248 23.9609 3.88643 23.9902 4.03307 24.176L8.50069 29.7531C8.64733 29.9389 8.618 30.2028 8.43226 30.3495L8.05588 30.6525C7.87014 30.7992 7.60619 30.7698 7.45955 30.5841L2.99682 25.0118C2.85018 24.8261 2.87951 24.5572 3.06036 24.4106Z" fill="#494949"/>
<path d="M4.62378 23.169L5.00016 22.866C5.1859 22.7193 5.44985 22.7487 5.59649 22.9344L7.35617 25.134C7.50281 25.3197 7.47348 25.5837 7.28773 25.7303L6.91136 26.0334C6.72562 26.18 6.46166 26.1507 6.31502 25.965L4.55535 23.7654C4.4136 23.5796 4.44293 23.3157 4.62378 23.169Z" fill="#494949"/>
<path d="M6.18791 21.9128L6.56429 21.6098C6.75003 21.4631 7.01398 21.4925 7.16062 21.6782L11.6282 27.2554C11.7749 27.4411 11.7456 27.7051 11.5598 27.8517L11.1834 28.1548C10.9977 28.3014 10.7337 28.2721 10.5871 28.0864L6.11948 22.5092C5.97284 22.3283 6.00217 22.0595 6.18791 21.9128Z" fill="#494949"/>
<path d="M7.33179 26.5515L7.70817 26.2485C7.89391 26.1018 8.15786 26.1312 8.3045 26.3169L10.0642 28.5165C10.2108 28.7022 10.1815 28.9662 9.99574 29.1128L9.61937 29.4159C9.43362 29.5625 9.16967 29.5332 9.02303 29.3475L7.26336 27.1479C7.12161 26.9621 7.15094 26.6982 7.33179 26.5515Z" fill="#494949"/>
<path d="M3.06523 11.5894L3.44649 11.8925C3.62735 12.0391 3.89619 12.0098 4.04283 11.8289L8.51044 6.27127C8.65708 6.09041 8.62776 5.82646 8.4469 5.67982L8.44201 5.67494L8.06564 5.37188C7.88478 5.22524 7.62083 5.25457 7.47419 5.43542L7.4693 5.44031L3.00169 11.0175C2.86971 11.1935 2.89904 11.4428 3.06523 11.5894ZM4.62939 12.8407L5.00576 13.1438C5.18662 13.2904 5.45057 13.2611 5.59721 13.0802L5.60209 13.0753L10.0697 7.49815C10.2164 7.3173 10.187 7.04846 10.0062 6.90182L9.6249 6.59876C9.44405 6.45212 9.17521 6.48145 9.02857 6.66231L4.56095 12.2444C4.41431 12.4252 4.44364 12.6892 4.6245 12.8358L4.62939 12.8407ZM6.18865 14.0872L6.56503 14.3902C6.74588 14.5368 7.01472 14.5075 7.16136 14.3267L11.629 8.74459C11.7756 8.56373 11.7463 8.29489 11.5654 8.14826L11.1891 7.8452C11.0082 7.69856 10.7443 7.72789 10.5976 7.90874L10.5927 7.91363L6.12022 13.4908C5.97358 13.6717 6.00291 13.9405 6.18865 14.0872C6.18376 14.092 6.18865 14.092 6.18865 14.092V14.0872Z" fill="#494949"/>
<path d="M28.6439 25.1389L30.4036 22.9393C30.5502 22.7536 30.819 22.7242 30.9999 22.8709L31.3763 23.1739C31.562 23.3206 31.5914 23.5894 31.4447 23.7703L29.685 25.9699C29.5384 26.1556 29.2696 26.1849 29.0887 26.0383L28.7123 25.7352C28.5266 25.5886 28.4973 25.3247 28.6439 25.1389Z" fill="#494949"/>
<path d="M30.2025 26.3707L31.9622 24.1711C32.1088 23.9853 32.3776 23.956 32.5585 24.1026L32.9349 24.4057C33.1206 24.5523 33.1499 24.8212 33.0033 25.002L31.2436 27.2016C31.097 27.3874 30.8282 27.4167 30.6473 27.2701L30.2709 26.967C30.0852 26.8204 30.0559 26.5515 30.2025 26.3707Z" fill="#494949"/>
<path d="M27.0843 23.8729L28.844 21.6733C28.9906 21.4876 29.2595 21.4583 29.4403 21.6049L29.8167 21.9128C30.0025 22.0595 30.0318 22.3283 29.8851 22.5092L28.1255 24.7088C27.9788 24.8945 27.71 24.9238 27.5291 24.7772L27.1528 24.4741C26.967 24.3226 26.9377 24.0587 27.0843 23.8729Z" fill="#494949"/>
<path d="M27.4994 29.7727L29.259 27.5731C29.4057 27.3874 29.6745 27.358 29.8554 27.5047L30.2317 27.8077C30.4175 27.9544 30.4468 28.2232 30.3002 28.4041L28.5405 30.6037C28.3939 30.7894 28.125 30.8187 27.9442 30.6721L27.5678 30.369C27.3821 30.2224 27.3527 29.9536 27.4994 29.7727Z" fill="#494949"/>
<path d="M25.9311 28.5116L27.7054 26.3169C27.8521 26.136 28.1209 26.1067 28.3066 26.2533L28.683 26.5564C28.8639 26.703 28.8932 26.9719 28.7466 27.1576L26.9722 29.3523C26.8256 29.5332 26.5567 29.5625 26.371 29.4159L25.9946 29.1128C25.8089 28.9613 25.7796 28.6925 25.9311 28.5116Z" fill="#494949"/>
<path d="M24.3714 27.2554L26.1311 25.0558C26.2777 24.8701 26.5466 24.8407 26.7274 24.9874L27.1038 25.2904C27.2896 25.4371 27.3189 25.7059 27.1723 25.8868L25.4126 28.0864C25.2659 28.2721 24.9971 28.3014 24.8162 28.1548L24.4399 27.8517C24.2541 27.7051 24.2248 27.4411 24.3714 27.2554Z" fill="#494949"/>
<path d="M11.3496 13.5641C13.7985 9.88838 18.7647 8.90101 22.4404 11.3499C26.1162 13.7988 27.1036 18.765 24.6547 22.4407L11.3496 13.5641Z" fill="#F4002F"/>
<path d="M11.3498 13.5641C8.90089 17.2399 9.88826 22.2061 13.564 24.655C17.2398 27.1039 22.206 26.1165 24.6549 22.4407C25.8817 20.6028 25.3832 18.1197 23.5502 16.8929C21.7123 15.666 19.2292 16.1646 18.0023 18.0024L11.3498 13.5641Z" fill="#004CBA"/>
<path d="M11.3498 13.5642C12.5767 11.7263 15.0597 11.2326 16.8927 12.4595C18.7306 13.6864 19.2243 16.1695 17.9974 18.0025C16.7705 19.8355 14.2923 20.334 12.4545 19.112C10.6215 17.89 10.1229 15.407 11.3498 13.5642Z" fill="#F4002F"/>
<path d="M27.558 5.6505L27.9344 5.34745C28.1201 5.20081 28.3841 5.23014 28.5307 5.41588L30.2904 7.61547C30.4371 7.80122 30.4077 8.06517 30.222 8.21181L29.8456 8.51486C29.6599 8.6615 29.3959 8.63217 29.2493 8.44643L27.4896 6.24684C27.343 6.06598 27.3723 5.79714 27.558 5.6505Z" fill="#494949"/>
<path d="M27.1482 11.5356L27.5246 11.2326C27.7103 11.0859 27.9743 11.1153 28.1209 11.301L29.8806 13.5006C30.0272 13.6863 29.9979 13.9503 29.8121 14.0969L29.4358 14.4C29.25 14.5466 28.9861 14.5173 28.8394 14.3316L27.0798 12.132C26.938 11.9462 26.9673 11.6823 27.1482 11.5356Z" fill="#494949"/>
<path d="M24.4402 8.14825L24.8166 7.84519C25.0023 7.69855 25.2663 7.72788 25.4129 7.91362L27.1726 10.1132C27.3192 10.299 27.2899 10.5629 27.1041 10.7095L26.7278 11.0126C26.542 11.1592 26.2781 11.1299 26.1314 10.9442L24.3718 8.74458C24.23 8.55884 24.2593 8.29489 24.4402 8.14825Z" fill="#494949"/>
<path d="M25.9994 6.90185L26.3758 6.59879C26.5616 6.45215 26.8255 6.48148 26.9721 6.66722L31.4398 12.2444C31.5864 12.4302 31.5571 12.6941 31.3713 12.8407L30.995 13.1438C30.8092 13.2904 30.5453 13.2611 30.3986 13.0754L25.931 7.49818C25.7844 7.31244 25.8137 7.04849 25.9994 6.90185Z" fill="#494949"/>
<path d="M30.2664 9.02325L30.6427 8.72019C30.8285 8.57355 31.0924 8.60288 31.2391 8.78862L32.9987 10.9882C33.1454 11.174 33.1161 11.4379 32.9303 11.5845L32.5539 11.8876C32.3682 12.0342 32.1042 12.0049 31.9576 11.8192L30.1979 9.61958C30.0562 9.43872 30.0855 9.16988 30.2664 9.02325Z" fill="#494949"/>
</g>
<rect x="0.5" y="0.5" width="35" height="35" rx="7.5" stroke="#494949"/>
<defs>
<clipPath id="clip0_349_6826">
<rect width="36" height="36" rx="8" fill="white"/>
</clipPath>
</defs>
</svg>
