<svg width="36" height="36" viewBox="0 0 36 36" fill="none" xmlns="http://www.w3.org/2000/svg">
<g clip-path="url(#clip0_349_6775)">
<path d="M28.125 0H7.875C3.52575 0 0 3.52575 0 7.875V28.125C0 32.4743 3.52575 36 7.875 36H28.125C32.4743 36 36 32.4743 36 28.125V7.875C36 3.52575 32.4743 0 28.125 0Z" fill="#C8414B"/>
<path d="M36 7.49744H0V28.5026H36V7.49744Z" fill="#FFD250"/>
<path d="M15.6864 18.0289L16.2668 15.6619C16.3202 15.4439 16.1372 15.2371 15.8909 15.2371H15.482C15.2356 15.2371 15.0525 15.4439 15.106 15.6619L15.6864 18.0289Z" fill="#C8414B"/>
<path d="M16.3711 16.7878H15.002V22.0612H16.3711V16.7878Z" fill="#F5F5F5"/>
<path d="M16.713 16.1677H14.6592V16.788H16.713V16.1677Z" fill="#FAB446"/>
<path d="M16.7139 18.0289H13.291V18.6492H16.7139V18.0289Z" fill="#C8414B"/>
<path d="M16.7139 20.5106L14.6602 19.8902V19.2698L16.7139 19.8902V20.5106Z" fill="#C8414B"/>
<path d="M5.41783 18.0289L5.99826 15.6619C6.05169 15.4439 5.86867 15.2371 5.6223 15.2371H5.21343C4.96705 15.2371 4.78396 15.4439 4.83747 15.6619L5.41783 18.0289Z" fill="#C8414B"/>
<path d="M7.81249 16.1677C7.43442 16.1677 7.12793 16.4455 7.12793 16.7882V20.8208C7.12793 21.5746 7.90425 22.9922 10.5509 22.9922C13.1975 22.9922 13.9738 21.5745 13.9738 20.8208V16.7882C13.9738 16.4455 13.6673 16.1677 13.2893 16.1677H7.81249Z" fill="#F5F5F5"/>
<path d="M10.5528 19.2698H7.12988V16.8195C7.12988 16.4595 7.42168 16.1677 7.78161 16.1677H10.5528V19.2698Z" fill="#C8414B"/>
<path d="M10.5527 19.2697H13.9757V20.7425C13.9757 21.6423 13.2463 22.3718 12.3464 22.3718H12.182C11.2822 22.3718 10.5527 21.6424 10.5527 20.7425V19.2697Z" fill="#C8414B"/>
<path d="M7.12793 19.2698H10.5509V20.7425C10.5509 21.6423 9.82146 22.3718 8.9216 22.3718H8.75721C7.85742 22.3718 7.12793 21.6424 7.12793 20.7425V19.2698Z" fill="#FAB446"/>
<path d="M9.86816 22.0545V19.2697H9.18359V22.3405C9.43812 22.2936 9.66826 22.1914 9.86816 22.0545Z" fill="#C8414B"/>
<path d="M8.49902 22.3405V19.2697H7.81445V22.0545C8.01435 22.1914 8.24441 22.2936 8.49902 22.3405Z" fill="#C8414B"/>
<path d="M9.8673 18.0289H7.81348V18.6492H9.8673V18.0289Z" fill="#FFB441"/>
<path d="M9.86633 16.7878H7.8125V17.4083H9.86633V16.7878Z" fill="#FAB446"/>
<path d="M9.52447 17.157H8.15527V18.2809H9.52447V17.157Z" fill="#FAB446"/>
<path d="M6.10259 16.7878H4.7334V22.0612H6.10259V16.7878Z" fill="#F5F5F5"/>
<path d="M6.44445 21.7512H4.39062V22.3716H6.44445V21.7512Z" fill="#FAB446"/>
<path d="M6.44445 16.1677H4.39062V16.788H6.44445V16.1677Z" fill="#FAB446"/>
<path d="M6.78617 22.372H4.04785V22.9924H6.78617V22.372Z" fill="#5064AA"/>
<path d="M17.0558 21.7512H15.002V22.3716H17.0558V21.7512Z" fill="#FAB446"/>
<path d="M17.0557 22.372H14.3174V22.9924H17.0557V22.372Z" fill="#5064AA"/>
<path d="M12.6057 15.5475H8.49805V16.1679H12.6057V15.5475Z" fill="#FAB446"/>
<path d="M10.8935 13.6863H10.209V15.5475H10.8935V13.6863Z" fill="#FFB441"/>
<path d="M9.86766 14.6167C9.30144 14.6167 8.84082 14.1993 8.84082 13.6861C8.84082 13.173 9.30144 12.7556 9.86766 12.7556C10.4339 12.7556 10.8945 13.173 10.8945 13.6861C10.8945 14.1993 10.4339 14.6167 9.86766 14.6167ZM9.86766 13.3759C9.6788 13.3759 9.52538 13.515 9.52538 13.6861C9.52538 13.8573 9.6788 13.9964 9.86766 13.9964C10.0565 13.9964 10.2099 13.8573 10.2099 13.6861C10.2099 13.515 10.0565 13.3759 9.86766 13.3759Z" fill="#F5F5F5"/>
<path d="M11.2368 14.6167C10.6706 14.6167 10.21 14.1993 10.21 13.6861C10.21 13.173 10.6706 12.7556 11.2368 12.7556C11.803 12.7556 12.2636 13.173 12.2636 13.6861C12.2636 14.1993 11.8031 14.6167 11.2368 14.6167ZM11.2368 13.3759C11.0479 13.3759 10.8945 13.515 10.8945 13.6861C10.8945 13.8573 11.0479 13.9964 11.2368 13.9964C11.4257 13.9964 11.5791 13.8573 11.5791 13.6861C11.5791 13.515 11.4257 13.3759 11.2368 13.3759Z" fill="#F5F5F5"/>
<path d="M12.6059 15.2371C12.0397 15.2371 11.5791 14.8197 11.5791 14.3066C11.5791 13.7934 12.0397 13.376 12.6059 13.376C13.1722 13.376 13.6329 13.7934 13.6329 14.3066C13.6329 14.8197 13.1722 15.2371 12.6059 15.2371ZM12.6059 13.9963C12.4171 13.9963 12.2637 14.1354 12.2637 14.3066C12.2637 14.4777 12.4171 14.6168 12.6059 14.6168C12.7948 14.6168 12.9482 14.4777 12.9482 14.3066C12.9482 14.1354 12.7948 13.9963 12.6059 13.9963Z" fill="#F5F5F5"/>
<path d="M8.49852 15.2371C7.9323 15.2371 7.47168 14.8197 7.47168 14.3066C7.47168 13.7934 7.9323 13.376 8.49852 13.376C9.06475 13.376 9.52537 13.7934 9.52537 14.3066C9.52537 14.8197 9.06475 15.2371 8.49852 15.2371ZM8.49852 13.9963C8.30966 13.9963 8.15624 14.1354 8.15624 14.3066C8.15624 14.4777 8.30966 14.6168 8.49852 14.6168C8.68738 14.6168 8.8408 14.4777 8.8408 14.3066C8.8408 14.1354 8.68738 13.9963 8.49852 13.9963Z" fill="#F5F5F5"/>
<path d="M12.6055 20.5105V20.8208C12.6055 20.9918 12.452 21.131 12.2632 21.131C12.0745 21.131 11.921 20.9918 11.921 20.8208V20.5105H12.6055ZM13.2901 19.8901H11.2363V20.8207C11.2363 21.3338 11.697 21.7513 12.2632 21.7513C12.8294 21.7513 13.2901 21.3338 13.2901 20.8207V19.8901Z" fill="#FAB446"/>
<path d="M12.2956 18.6493H12.2299C11.8699 18.6493 11.5781 18.3575 11.5781 17.9976V17.4398C11.5781 17.0799 11.8699 16.7881 12.2299 16.7881H12.2956C12.6555 16.7881 12.9473 17.0799 12.9473 17.4398V17.9976C12.9473 18.3576 12.6555 18.6493 12.2956 18.6493Z" fill="#FFA0D2"/>
<path d="M10.5513 20.2004C11.1184 20.2004 11.5781 19.7838 11.5781 19.2698C11.5781 18.7559 11.1184 18.3392 10.5513 18.3392C9.98415 18.3392 9.52441 18.7559 9.52441 19.2698C9.52441 19.7838 9.98415 20.2004 10.5513 20.2004Z" fill="#5064AA"/>
<path d="M10.8935 12.4453H10.209V14.3066H10.8935V12.4453Z" fill="#FAB446"/>
<path d="M8.49804 15.5474L7.81348 14.927L8.21447 14.5635C8.83434 14.0017 9.67514 13.6862 10.5518 13.6862C11.4285 13.6862 12.2693 14.0018 12.8891 14.5635L13.2901 14.927L12.6056 15.5474H8.49804Z" fill="#C8414B"/>
<path d="M10.5513 15.2368C10.7403 15.2368 10.8935 15.0979 10.8935 14.9266C10.8935 14.7553 10.7403 14.6164 10.5513 14.6164C10.3622 14.6164 10.209 14.7553 10.209 14.9266C10.209 15.0979 10.3622 15.2368 10.5513 15.2368Z" fill="#FFD250"/>
<path d="M9.18213 15.2368C9.37116 15.2368 9.52441 15.0979 9.52441 14.9266C9.52441 14.7553 9.37116 14.6164 9.18213 14.6164C8.99309 14.6164 8.83984 14.7553 8.83984 14.9266C8.83984 15.0979 8.99309 15.2368 9.18213 15.2368Z" fill="#FFD250"/>
<path d="M11.9194 15.2368C12.1085 15.2368 12.2617 15.0979 12.2617 14.9266C12.2617 14.7553 12.1085 14.6164 11.9194 14.6164C11.7304 14.6164 11.5771 14.7553 11.5771 14.9266C11.5771 15.0979 11.7304 15.2368 11.9194 15.2368Z" fill="#FFD250"/>
<path d="M7.81351 18.0288H4.39062V18.6492H7.81351V18.0288Z" fill="#C8414B"/>
<path d="M4.39062 20.5105L6.44438 19.8901V19.2697L4.39062 19.8901V20.5105Z" fill="#C8414B"/>
</g>
<defs>
<clipPath id="clip0_349_6775">
<rect width="36" height="36" fill="white"/>
</clipPath>
</defs>
</svg>
