<svg width="36" height="36" viewBox="0 0 36 36" fill="none" xmlns="http://www.w3.org/2000/svg">
<g clip-path="url(#clip0_349_6765)">
<path d="M28.125 0H7.875C3.52575 0 0 3.52575 0 7.875V28.125C0 32.4743 3.52575 36 7.875 36H28.125C32.4743 36 36 32.4743 36 28.125V7.875C36 3.52575 32.4743 0 28.125 0Z" fill="#FF2B2B"/>
<path d="M18.321 10.3099L20.1607 15.8258L25.9751 15.8709C26.3003 15.8734 26.4351 16.2884 26.1736 16.4815L21.496 19.9356L23.2499 25.4794C23.348 25.7894 22.995 26.0458 22.7305 25.8568L18 22.4756L13.2695 25.8568C13.005 26.0459 12.6521 25.7895 12.7501 25.4795L14.504 19.9357L9.82647 16.4816C9.56491 16.2884 9.69977 15.8735 10.0249 15.871L15.8394 15.8259L17.679 10.31C17.7819 10.0014 18.2181 10.0014 18.321 10.3099Z" fill="#FFC700"/>
</g>
<defs>
<clipPath id="clip0_349_6765">
<rect width="36" height="36" rx="8" fill="white"/>
</clipPath>
</defs>
</svg>
